<svg xmlns="http://www.w3.org/2000/svg" viewBox="0 0 512 512">
  <rect width="512" height="512" rx="96" fill="#0A0A0F"/>
  <path d="M229.77,118.48 L235.15,67.15 L276.85,67.15 L282.23,118.48 A140,140 0 0,1 334.69,140.21 L374.8,107.72 L404.28,137.2 L371.79,177.31 A140,140 0 0,1 393.52,229.77 L444.85,235.15 L444.85,276.85 L393.52,282.23 A140,140 0 0,1 371.79,334.69 L404.28,374.8 L374.8,404.28 L334.69,371.79 A140,140 0 0,1 282.23,393.52 L276.85,444.85 L235.15,444.85 L229.77,393.52 A140,140 0 0,1 177.31,371.79 L137.2,404.28 L107.72,374.8 L140.21,334.69 A140,140 0 0,1 118.48,282.23 L67.15,276.85 L67.15,235.15 L118.48,229.77 A140,140 0 0,1 140.21,177.31 L107.72,137.2 L137.2,107.72 L177.31,140.21 A140,140 0 0,1 229.77,118.48 Z" fill="#D4AF37" opacity="0.9"/>
  <circle cx="256" cy="256" r="70" fill="#0A0A0F"/>
  <circle cx="256" cy="256" r="70" fill="none" stroke="#D4AF37" stroke-width="5" opacity="0.7"/>
  <circle cx="256" cy="256" r="20" fill="#D4AF37" opacity="0.6"/>
</svg>
